<?xml version="1.0" encoding="UTF-8" standalone="no"?>
<!-- Created with Inkscape (http://www.inkscape.org/) -->

<svg
   width="64"
   height="64"
   viewBox="0 0 64 64.000003"
   version="1.1"
   id="svg1"
   inkscape:version="1.4 (e7c3feb100, 2024-10-09)"
   sodipodi:docname="icon_last_month.svg"
   xmlns:inkscape="http://www.inkscape.org/namespaces/inkscape"
   xmlns:sodipodi="http://sodipodi.sourceforge.net/DTD/sodipodi-0.dtd"
   xmlns="http://www.w3.org/2000/svg"
   xmlns:svg="http://www.w3.org/2000/svg">
  <sodipodi:namedview
     id="namedview1"
     pagecolor="#ffffff"
     bordercolor="#000000"
     borderopacity="0.25"
     inkscape:showpageshadow="2"
     inkscape:pageopacity="0.0"
     inkscape:pagecheckerboard="0"
     inkscape:deskcolor="#d1d1d1"
     inkscape:document-units="mm"
     showgrid="true"
     inkscape:zoom="11.630976"
     inkscape:cx="30.049069"
     inkscape:cy="32.714366"
     inkscape:window-width="1920"
     inkscape:window-height="1016"
     inkscape:window-x="0"
     inkscape:window-y="27"
     inkscape:window-maximized="1"
     inkscape:current-layer="layer1">
    <inkscape:grid
       id="grid1"
       units="px"
       originx="0"
       originy="0"
       spacingx="1"
       spacingy="1"
       empcolor="#0099e5"
       empopacity="0.30196078"
       color="#0099e5"
       opacity="0.14901961"
       empspacing="8"
       dotted="false"
       gridanglex="30"
       gridanglez="30"
       visible="true" />
  </sodipodi:namedview>
  <defs
     id="defs1">
    <inkscape:path-effect
       effect="powerclip"
       message=""
       id="path-effect4"
       is_visible="true"
       lpeversion="1"
       inverse="true"
       flatten="false"
       hide_clip="false" />
    <clipPath
       clipPathUnits="userSpaceOnUse"
       id="clipPath4">
      <path
         style="display:none;fill:#ff0000;stroke-linecap:round;stroke-linejoin:round;stroke-dashoffset:0.799748"
         d="m 32,12 a 3,3 0 0 0 -3,3 v 17 a 3.0003,3.0003 0 0 0 1.5,2.597656 l 9.486328,5.476563 a 3,3 0 0 0 4.097656,-1.097657 3,3 0 0 0 -1.097656,-4.097656 L 35,30.267578 V 15 a 3,3 0 0 0 -3,-3 z"
         id="path4" />
      <path
         id="lpe_path-effect4"
         style="fill:#ff0000;stroke-linecap:round;stroke-linejoin:round;stroke-dashoffset:0.799748"
         class="powerclip"
         d="M 3.0000019,3 H 60.999998 V 60.999996 H 3.0000019 Z M 32,12 a 3,3 0 0 0 -3,3 v 17 a 3.0003,3.0003 0 0 0 1.5,2.597656 l 9.486328,5.476563 a 3,3 0 0 0 4.097656,-1.097657 3,3 0 0 0 -1.097656,-4.097656 L 35,30.267578 V 15 a 3,3 0 0 0 -3,-3 z" />
    </clipPath>
  </defs>
  <g
     inkscape:label="Layer 1"
     inkscape:groupmode="layer"
     id="layer1">
    <path
       style="fill:#000000;fill-opacity:1;stroke:none;stroke-width:4;stroke-linecap:round;stroke-linejoin:round;stroke-dasharray:none;stroke-dashoffset:0.799748;stroke-opacity:1"
       id="path1"
       clip-path="url(#clipPath4)"
       inkscape:path-effect="#path-effect4"
       sodipodi:type="arc"
       sodipodi:cx="32"
       sodipodi:cy="31.999998"
       sodipodi:rx="23.999998"
       sodipodi:ry="23.999998"
       d="M 55.999998,31.999998 A 23.999998,23.999998 0 0 1 32,55.999996 23.999998,23.999998 0 0 1 8.0000019,31.999998 23.999998,23.999998 0 0 1 32,8 23.999998,23.999998 0 0 1 55.999998,31.999998 Z" />
  </g>
</svg>
